<?xml version="1.0" encoding="utf-8"?>
<!-- Generator: Adobe Illustrator 22.1.0, SVG Export Plug-In . SVG Version: 6.00 Build 0)  -->
<svg version="1.1" id="Layer_1" xmlns="http://www.w3.org/2000/svg" xmlns:xlink="http://www.w3.org/1999/xlink" x="0px" y="0px"
	 viewBox="0 0 1000 1000" style="enable-background:new 0 0 1000 1000;" xml:space="preserve">
<style type="text/css">
	.st0{fill:#77BC1F;}
	.st1{fill:#FFFFFF;}
</style>
<circle class="st0" cx="500" cy="500.9" r="492.5"/>
<g>
	<path class="st1" d="M500.1,799.9c79.9,0,153.9-30.2,208.3-85c55-55.4,85-131.1,84.5-213.1c0-167.8-128.6-299.2-292.7-299.2h-33.6
		v23.1h33.6c151.2,0,269.5,121.3,269.5,276.2c0.6,75.8-27,145.7-77.7,196.8c-50.1,50.3-118.2,78-191.9,78
		c-153.7,0-269.5-118.3-269.5-275.1c0-68.6,23.7-133.8,66.9-183.7l-16.6-16.5c-47.4,54.4-73.5,125.4-73.5,200.3
		C207.4,671.7,333.2,799.9,500.1,799.9"/>
	<path class="st1" d="M500.1,846c92.2,0,177.5-34.8,240.4-98.1c63.4-63.9,98-151.3,97.3-246c0-192.8-147.7-344.4-336.1-345.4h-12.5
		V48.3L332.2,215l157.1,166.7v-110h10.8c125.8,0,224.4,101,224.4,230c0.4,63.2-22.5,121.5-64.7,163.9c-41.6,41.9-98.4,65-159.7,65
		c-128,0-224.4-98.4-224.4-229c0-56.2,19.2-109.8,54.2-151.3L313.3,334c-39.3,45.8-60.8,105.3-60.8,167.7
		c0,143.7,106.4,252.1,247.6,252.1c67.6,0,130.2-25.5,176.1-71.9c46.5-46.9,71.9-110.8,71.4-180.2c0-141.9-108.7-253-247.5-253
		h-33.9v74.9L364,215l102.2-108.5v73.1h33.9c176.5,0,314.7,141.6,314.7,322.4c0.7,88.6-31.6,170.1-90.7,229.7
		c-58.4,58.8-137.9,91.2-224,91.2c-179.4,0-314.7-138-314.7-321c0-80.9,28.2-157.6,79.5-216.3l-16.5-16.5
		c-55.6,63-86.2,145.6-86.2,232.8C162.2,698.1,307.5,846,500.1,846"/>
</g>
</svg>
